<svg xmlns="http://www.w3.org/2000/svg" xmlns:xlink="http://www.w3.org/1999/xlink" width="450" zoomAndPan="magnify" viewBox="0 0 337.5 67.499998" height="90" preserveAspectRatio="xMidYMid meet" version="1.0"><defs><clipPath id="f30772155c"><path d="M 310 21 L 335.148438 21 L 335.148438 49 L 310 49 Z M 310 21 " clip-rule="nonzero"/></clipPath><clipPath id="4e98daa312"><path d="M 1.617188 1.585938 L 42 1.585938 L 42 65.609375 L 1.617188 65.609375 Z M 1.617188 1.585938 " clip-rule="nonzero"/></clipPath><clipPath id="af4e07e5f4"><path d="M 39.863281 16.664062 L 3.101562 65.179688 C 2.515625 65.949219 1.3125 65.25 1.691406 64.359375 L 14.652344 33.746094 C 14.816406 33.363281 14.371094 33.007812 14.035156 33.25 L 2.28125 41.875 C 1.976562 42.097656 1.589844 41.734375 1.792969 41.417969 L 23.78125 6.476562 C 24.335938 5.335938 26.445312 2.921875 29.492188 2.023438 C 31.878906 1.394531 34.722656 1.566406 37.460938 3.433594 C 40.320312 5.640625 41.375 8.359375 41.453125 10.761719 C 41.542969 13.574219 40.335938 15.960938 39.859375 16.664062 Z M 39.863281 16.664062 " clip-rule="nonzero"/></clipPath><linearGradient x1="173.885531" gradientTransform="matrix(0.333474, 0.116962, 0.00033864, 0.246612, -60.21541, 192.888588)" y1="-609.244397" x2="300.687727" gradientUnits="userSpaceOnUse" y2="-923.068093" id="ad6ae83be9"><stop stop-opacity="1" stop-color="rgb(0.00762939%, 89.756775%, 99.986267%)" offset="0"/><stop stop-opacity="1" stop-color="rgb(0.038147%, 89.608765%, 99.940491%)" offset="0.03125"/><stop stop-opacity="1" stop-color="rgb(0.0991821%, 89.31427%, 99.848938%)" offset="0.0625"/><stop stop-opacity="1" stop-color="rgb(0.158691%, 89.01825%, 99.758911%)" offset="0.09375"/><stop stop-opacity="1" stop-color="rgb(0.219727%, 88.723755%, 99.668884%)" offset="0.125"/><stop stop-opacity="1" stop-color="rgb(0.279236%, 88.42926%, 99.577332%)" offset="0.132866"/><stop stop-opacity="1" stop-color="rgb(0.309753%, 88.282776%, 99.533081%)" offset="0.15625"/><stop stop-opacity="1" stop-color="rgb(0.340271%, 88.134766%, 99.487305%)" offset="0.1875"/><stop stop-opacity="1" stop-color="rgb(0.401306%, 87.840271%, 99.395752%)" offset="0.21875"/><stop stop-opacity="1" stop-color="rgb(0.460815%, 87.545776%, 99.305725%)" offset="0.25"/><stop stop-opacity="1" stop-color="rgb(0.521851%, 87.249756%, 99.214172%)" offset="0.28125"/><stop stop-opacity="1" stop-color="rgb(0.58136%, 86.955261%, 99.124146%)" offset="0.3125"/><stop stop-opacity="1" stop-color="rgb(0.642395%, 86.660767%, 99.034119%)" offset="0.34375"/><stop stop-opacity="1" stop-color="rgb(0.70343%, 86.366272%, 98.942566%)" offset="0.375"/><stop stop-opacity="1" stop-color="rgb(0.762939%, 86.071777%, 98.852539%)" offset="0.40625"/><stop stop-opacity="1" stop-color="rgb(0.883484%, 85.401917%, 98.670959%)" offset="0.410156"/><stop stop-opacity="1" stop-color="rgb(0.975037%, 84.880066%, 98.536682%)" offset="0.414063"/><stop stop-opacity="1" stop-color="rgb(1.109314%, 84.101868%, 98.335266%)" offset="0.417969"/><stop stop-opacity="1" stop-color="rgb(1.245117%, 83.325195%, 98.135376%)" offset="0.421875"/><stop stop-opacity="1" stop-color="rgb(1.379395%, 82.546997%, 97.93396%)" offset="0.425781"/><stop stop-opacity="1" stop-color="rgb(1.513672%, 81.770325%, 97.73407%)" offset="0.429688"/><stop stop-opacity="1" stop-color="rgb(1.647949%, 80.992126%, 97.532654%)" offset="0.433594"/><stop stop-opacity="1" stop-color="rgb(1.782227%, 80.215454%, 97.332764%)" offset="0.4375"/><stop stop-opacity="1" stop-color="rgb(1.916504%, 79.437256%, 97.132874%)" offset="0.441406"/><stop stop-opacity="1" stop-color="rgb(2.050781%, 78.659058%, 96.932983%)" offset="0.445312"/><stop stop-opacity="1" stop-color="rgb(2.185059%, 77.880859%, 96.731567%)" offset="0.449219"/><stop stop-opacity="1" stop-color="rgb(2.320862%, 77.104187%, 96.531677%)" offset="0.453125"/><stop stop-opacity="1" stop-color="rgb(2.455139%, 76.325989%, 96.330261%)" offset="0.457031"/><stop stop-opacity="1" stop-color="rgb(2.589417%, 75.549316%, 96.130371%)" offset="0.460937"/><stop stop-opacity="1" stop-color="rgb(2.723694%, 74.771118%, 95.928955%)" offset="0.464844"/><stop stop-opacity="1" stop-color="rgb(2.857971%, 73.994446%, 95.729065%)" offset="0.46875"/><stop stop-opacity="1" stop-color="rgb(2.992249%, 73.216248%, 95.527649%)" offset="0.472656"/><stop stop-opacity="1" stop-color="rgb(3.126526%, 72.439575%, 95.327759%)" offset="0.476562"/><stop stop-opacity="1" stop-color="rgb(3.260803%, 71.661377%, 95.127869%)" offset="0.480469"/><stop stop-opacity="1" stop-color="rgb(3.396606%, 70.884705%, 94.927979%)" offset="0.484375"/><stop stop-opacity="1" stop-color="rgb(3.530884%, 70.106506%, 94.726562%)" offset="0.488281"/><stop stop-opacity="1" stop-color="rgb(3.665161%, 69.328308%, 94.526672%)" offset="0.492188"/><stop stop-opacity="1" stop-color="rgb(3.799438%, 68.55011%, 94.325256%)" offset="0.496094"/><stop stop-opacity="1" stop-color="rgb(3.933716%, 67.773438%, 94.125366%)" offset="0.5"/><stop stop-opacity="1" stop-color="rgb(4.067993%, 66.995239%, 93.92395%)" offset="0.503906"/><stop stop-opacity="1" stop-color="rgb(4.203796%, 66.218567%, 93.72406%)" offset="0.507812"/><stop stop-opacity="1" stop-color="rgb(4.338074%, 65.440369%, 93.522644%)" offset="0.511719"/><stop stop-opacity="1" stop-color="rgb(4.472351%, 64.663696%, 93.322754%)" offset="0.515625"/><stop stop-opacity="1" stop-color="rgb(4.606628%, 63.885498%, 93.122864%)" offset="0.519531"/><stop stop-opacity="1" stop-color="rgb(4.740906%, 63.108826%, 92.922974%)" offset="0.523438"/><stop stop-opacity="1" stop-color="rgb(4.875183%, 62.330627%, 92.721558%)" offset="0.527344"/><stop stop-opacity="1" stop-color="rgb(5.00946%, 61.553955%, 92.521667%)" offset="0.53125"/><stop stop-opacity="1" stop-color="rgb(5.143738%, 60.775757%, 92.320251%)" offset="0.535156"/><stop stop-opacity="1" stop-color="rgb(5.279541%, 59.997559%, 92.120361%)" offset="0.539062"/><stop stop-opacity="1" stop-color="rgb(5.413818%, 59.21936%, 91.918945%)" offset="0.542969"/><stop stop-opacity="1" stop-color="rgb(5.548096%, 58.442688%, 91.719055%)" offset="0.546875"/><stop stop-opacity="1" stop-color="rgb(5.682373%, 57.66449%, 91.517639%)" offset="0.550781"/><stop stop-opacity="1" stop-color="rgb(5.81665%, 56.887817%, 91.317749%)" offset="0.554688"/><stop stop-opacity="1" stop-color="rgb(5.950928%, 56.109619%, 91.117859%)" offset="0.558594"/><stop stop-opacity="1" stop-color="rgb(6.085205%, 55.332947%, 90.917969%)" offset="0.5625"/><stop stop-opacity="1" stop-color="rgb(6.217957%, 54.562378%, 90.719604%)" offset="0.566406"/><stop stop-opacity="1" stop-color="rgb(6.350708%, 53.793335%, 90.522766%)" offset="0.570313"/><stop stop-opacity="1" stop-color="rgb(6.47583%, 53.05481%, 90.339661%)" offset="0.574219"/><stop stop-opacity="1" stop-color="rgb(6.600952%, 52.316284%, 90.156555%)" offset="0.578125"/><stop stop-opacity="1" stop-color="rgb(6.724548%, 51.577759%, 89.97345%)" offset="0.582031"/><stop stop-opacity="1" stop-color="rgb(6.84967%, 50.840759%, 89.790344%)" offset="0.585938"/><stop stop-opacity="1" stop-color="rgb(6.973267%, 50.102234%, 89.605713%)" offset="0.589844"/><stop stop-opacity="1" stop-color="rgb(7.098389%, 49.363708%, 89.422607%)" offset="0.59375"/><stop stop-opacity="1" stop-color="rgb(7.223511%, 48.625183%, 89.239502%)" offset="0.597656"/><stop stop-opacity="1" stop-color="rgb(7.348633%, 47.886658%, 89.056396%)" offset="0.601563"/><stop stop-opacity="1" stop-color="rgb(7.472229%, 47.148132%, 88.873291%)" offset="0.605469"/><stop stop-opacity="1" stop-color="rgb(7.597351%, 46.409607%, 88.690186%)" offset="0.609375"/><stop stop-opacity="1" stop-color="rgb(7.722473%, 45.671082%, 88.505554%)" offset="0.613281"/><stop stop-opacity="1" stop-color="rgb(7.847595%, 44.932556%, 88.322449%)" offset="0.617188"/><stop stop-opacity="1" stop-color="rgb(7.971191%, 44.194031%, 88.139343%)" offset="0.621094"/><stop stop-opacity="1" stop-color="rgb(8.096313%, 43.455505%, 87.956238%)" offset="0.625"/><stop stop-opacity="1" stop-color="rgb(8.221436%, 42.71698%, 87.771606%)" offset="0.628906"/><stop stop-opacity="1" stop-color="rgb(8.346558%, 41.978455%, 87.588501%)" offset="0.632812"/><stop stop-opacity="1" stop-color="rgb(8.470154%, 41.239929%, 87.405396%)" offset="0.636719"/><stop stop-opacity="1" stop-color="rgb(8.595276%, 40.501404%, 87.22229%)" offset="0.640625"/><stop stop-opacity="1" stop-color="rgb(8.720398%, 39.762878%, 87.039185%)" offset="0.644531"/><stop stop-opacity="1" stop-color="rgb(8.84552%, 39.025879%, 86.856079%)" offset="0.648437"/><stop stop-opacity="1" stop-color="rgb(8.969116%, 38.287354%, 86.671448%)" offset="0.652344"/><stop stop-opacity="1" stop-color="rgb(9.094238%, 37.548828%, 86.488342%)" offset="0.65625"/><stop stop-opacity="1" stop-color="rgb(9.217834%, 36.810303%, 86.305237%)" offset="0.660156"/><stop stop-opacity="1" stop-color="rgb(9.342957%, 36.071777%, 86.122131%)" offset="0.664062"/><stop stop-opacity="1" stop-color="rgb(9.468079%, 35.333252%, 85.939026%)" offset="0.667969"/><stop stop-opacity="1" stop-color="rgb(9.593201%, 34.594727%, 85.75592%)" offset="0.671875"/><stop stop-opacity="1" stop-color="rgb(9.716797%, 33.856201%, 85.571289%)" offset="0.675781"/><stop stop-opacity="1" stop-color="rgb(9.841919%, 33.117676%, 85.388184%)" offset="0.679687"/><stop stop-opacity="1" stop-color="rgb(9.967041%, 32.37915%, 85.205078%)" offset="0.683594"/><stop stop-opacity="1" stop-color="rgb(10.092163%, 31.640625%, 85.021973%)" offset="0.6875"/><stop stop-opacity="1" stop-color="rgb(10.215759%, 30.9021%, 84.838867%)" offset="0.691406"/><stop stop-opacity="1" stop-color="rgb(10.340881%, 30.163574%, 84.655762%)" offset="0.695312"/><stop stop-opacity="1" stop-color="rgb(10.466003%, 29.425049%, 84.47113%)" offset="0.699219"/><stop stop-opacity="1" stop-color="rgb(10.591125%, 28.686523%, 84.288025%)" offset="0.703125"/><stop stop-opacity="1" stop-color="rgb(10.714722%, 27.947998%, 84.104919%)" offset="0.707031"/><stop stop-opacity="1" stop-color="rgb(10.839844%, 27.209473%, 83.921814%)" offset="0.710938"/><stop stop-opacity="1" stop-color="rgb(10.964966%, 26.470947%, 83.737183%)" offset="0.714844"/><stop stop-opacity="1" stop-color="rgb(11.090088%, 25.733948%, 83.554077%)" offset="0.71875"/><stop stop-opacity="1" stop-color="rgb(11.213684%, 24.995422%, 83.370972%)" offset="0.722656"/><stop stop-opacity="1" stop-color="rgb(11.338806%, 24.256897%, 83.187866%)" offset="0.726562"/><stop stop-opacity="1" stop-color="rgb(11.459351%, 23.616028%, 83.036804%)" offset="0.730469"/><stop stop-opacity="1" stop-color="rgb(11.579895%, 22.976685%, 82.885742%)" offset="0.734375"/><stop stop-opacity="1" stop-color="rgb(11.698914%, 22.369385%, 82.745361%)" offset="0.738281"/><stop stop-opacity="1" stop-color="rgb(11.819458%, 21.762085%, 82.606506%)" offset="0.742188"/><stop stop-opacity="1" stop-color="rgb(11.938477%, 21.153259%, 82.466125%)" offset="0.746094"/><stop stop-opacity="1" stop-color="rgb(12.059021%, 20.545959%, 82.325745%)" offset="0.75"/><stop stop-opacity="1" stop-color="rgb(12.17804%, 19.937134%, 82.185364%)" offset="0.753906"/><stop stop-opacity="1" stop-color="rgb(12.297058%, 19.329834%, 82.044983%)" offset="0.757812"/><stop stop-opacity="1" stop-color="rgb(12.416077%, 18.721008%, 81.904602%)" offset="0.761719"/><stop stop-opacity="1" stop-color="rgb(12.536621%, 18.113708%, 81.764221%)" offset="0.765625"/><stop stop-opacity="1" stop-color="rgb(12.65564%, 17.504883%, 81.62384%)" offset="0.769531"/><stop stop-opacity="1" stop-color="rgb(12.776184%, 16.897583%, 81.483459%)" offset="0.773438"/><stop stop-opacity="1" stop-color="rgb(12.895203%, 16.290283%, 81.343079%)" offset="0.777344"/><stop stop-opacity="1" stop-color="rgb(13.014221%, 15.682983%, 81.202698%)" offset="0.78125"/><stop stop-opacity="1" stop-color="rgb(13.13324%, 15.074158%, 81.062317%)" offset="0.785156"/><stop stop-opacity="1" stop-color="rgb(13.253784%, 14.466858%, 80.921936%)" offset="0.789062"/><stop stop-opacity="1" stop-color="rgb(13.372803%, 13.858032%, 80.781555%)" offset="0.792969"/><stop stop-opacity="1" stop-color="rgb(13.491821%, 13.250732%, 80.641174%)" offset="0.796875"/><stop stop-opacity="1" stop-color="rgb(13.595581%, 12.724304%, 80.519104%)" offset="0.800781"/><stop stop-opacity="1" stop-color="rgb(13.699341%, 12.199402%, 80.39856%)" offset="0.804688"/><stop stop-opacity="1" stop-color="rgb(13.699341%, 12.199402%, 80.39856%)" offset="0.8125"/><stop stop-opacity="1" stop-color="rgb(13.699341%, 12.199402%, 80.39856%)" offset="0.867134"/><stop stop-opacity="1" stop-color="rgb(13.699341%, 12.199402%, 80.39856%)" offset="0.875"/><stop stop-opacity="1" stop-color="rgb(13.699341%, 12.199402%, 80.39856%)" offset="1"/></linearGradient><clipPath id="50e54f9898"><path d="M 22 1.585938 L 42 1.585938 L 42 21 L 22 21 Z M 22 1.585938 " clip-rule="nonzero"/></clipPath><clipPath id="bc72b71aff"><path d="M 25 18 L 67 18 L 67 65.609375 L 25 65.609375 Z M 25 18 " clip-rule="nonzero"/></clipPath><clipPath id="7b2a3bb237"><path d="M 65.851562 65.511719 L 64.179688 65.511719 C 63.730469 65.511719 63.289062 65.492188 62.835938 65.464844 C 62.539062 65.449219 62.230469 65.421875 61.933594 65.386719 C 61.691406 65.359375 61.4375 65.324219 61.1875 65.285156 C 60.691406 65.210938 60.203125 65.113281 59.71875 65.003906 C 59.160156 64.878906 58.609375 64.714844 58.070312 64.542969 C 57.882812 64.488281 57.703125 64.425781 57.511719 64.363281 C 57.222656 64.253906 56.933594 64.144531 56.644531 64.027344 C 56.484375 63.96875 56.328125 63.90625 56.167969 63.835938 C 55.90625 63.71875 55.652344 63.601562 55.390625 63.476562 C 55.167969 63.367188 54.941406 63.25 54.726562 63.132812 C 54.347656 62.933594 53.984375 62.726562 53.625 62.5 C 53.527344 62.445312 53.4375 62.394531 53.339844 62.328125 C 53.277344 62.28125 53.203125 62.238281 53.132812 62.191406 C 53.078125 62.152344 53.03125 62.117188 52.976562 62.089844 C 52.699219 61.902344 52.417969 61.710938 52.148438 61.503906 C 51.832031 61.265625 51.519531 61.015625 51.210938 60.761719 C 51.203125 60.761719 51.191406 60.761719 51.191406 60.753906 C 50.851562 60.464844 50.515625 60.15625 50.183594 59.839844 C 49.96875 59.632812 49.761719 59.417969 49.542969 59.199219 C 49.488281 59.136719 49.4375 59.074219 49.371094 59.011719 C 49.128906 58.746094 48.886719 58.484375 48.660156 58.203125 C 47.976562 57.40625 47.355469 56.558594 46.8125 55.644531 L 46.8125 55.636719 C 46.769531 55.5625 46.734375 55.5 46.695312 55.4375 C 45.410156 53.214844 43.765625 52.390625 40.121094 52.390625 L 26.132812 52.390625 C 25.898438 52.390625 25.710938 52.203125 25.710938 51.964844 C 25.710938 48.78125 28.289062 46.203125 31.453125 46.203125 L 42.726562 46.203125 C 42.851562 46.203125 42.933594 46.085938 42.898438 45.96875 L 36.863281 29.585938 L 44.269531 19.8125 L 44.453125 19.539062 C 44.65625 19.253906 44.859375 18.789062 45.085938 18.398438 L 61.691406 54.804688 L 66.277344 64.851562 C 66.417969 65.15625 66.195312 65.511719 65.851562 65.511719 Z M 65.851562 65.511719 " clip-rule="nonzero"/></clipPath><linearGradient x1="163.952355" gradientTransform="matrix(0.367963, 0, 0, 0.369361, 1.617163, 1.685225)" y1="182.38569" x2="59.527985" gradientUnits="userSpaceOnUse" y2="49.942887" id="3e35e140b3"><stop stop-opacity="1" stop-color="rgb(13.699341%, 12.199402%, 80.39856%)" offset="0"/><stop stop-opacity="1" stop-color="rgb(13.699341%, 12.199402%, 80.39856%)" offset="0.0625"/><stop stop-opacity="1" stop-color="rgb(13.699341%, 12.199402%, 80.39856%)" offset="0.09375"/><stop stop-opacity="1" stop-color="rgb(13.699341%, 12.199402%, 80.39856%)" offset="0.109375"/><stop stop-opacity="1" stop-color="rgb(13.693237%, 12.226868%, 80.404663%)" offset="0.117188"/><stop stop-opacity="1" stop-color="rgb(13.621521%, 12.547302%, 80.476379%)" offset="0.121094"/><stop stop-opacity="1" stop-color="rgb(13.557434%, 12.840271%, 80.541992%)" offset="0.125"/><stop stop-opacity="1" stop-color="rgb(13.491821%, 13.131714%, 80.606079%)" offset="0.128906"/><stop stop-opacity="1" stop-color="rgb(13.426208%, 13.424683%, 80.671692%)" offset="0.132813"/><stop stop-opacity="1" stop-color="rgb(13.360596%, 13.716125%, 80.735779%)" offset="0.136719"/><stop stop-opacity="1" stop-color="rgb(13.296509%, 14.009094%, 80.801392%)" offset="0.140625"/><stop stop-opacity="1" stop-color="rgb(13.230896%, 14.300537%, 80.865479%)" offset="0.144531"/><stop stop-opacity="1" stop-color="rgb(13.166809%, 14.59198%, 80.931091%)" offset="0.148438"/><stop stop-opacity="1" stop-color="rgb(13.101196%, 14.883423%, 80.995178%)" offset="0.152344"/><stop stop-opacity="1" stop-color="rgb(13.037109%, 15.176392%, 81.060791%)" offset="0.15625"/><stop stop-opacity="1" stop-color="rgb(12.971497%, 15.467834%, 81.124878%)" offset="0.160156"/><stop stop-opacity="1" stop-color="rgb(12.90741%, 15.760803%, 81.190491%)" offset="0.164063"/><stop stop-opacity="1" stop-color="rgb(12.841797%, 16.052246%, 81.254578%)" offset="0.167969"/><stop stop-opacity="1" stop-color="rgb(12.77771%, 16.343689%, 81.32019%)" offset="0.171875"/><stop stop-opacity="1" stop-color="rgb(12.712097%, 16.635132%, 81.384277%)" offset="0.175781"/><stop stop-opacity="1" stop-color="rgb(12.64801%, 16.928101%, 81.44989%)" offset="0.179688"/><stop stop-opacity="1" stop-color="rgb(12.582397%, 17.219543%, 81.513977%)" offset="0.183594"/><stop stop-opacity="1" stop-color="rgb(12.518311%, 17.512512%, 81.57959%)" offset="0.1875"/><stop stop-opacity="1" stop-color="rgb(12.449646%, 17.880249%, 81.674194%)" offset="0.191406"/><stop stop-opacity="1" stop-color="rgb(12.380981%, 18.249512%, 81.768799%)" offset="0.195313"/><stop stop-opacity="1" stop-color="rgb(12.312317%, 18.630981%, 81.867981%)" offset="0.199219"/><stop stop-opacity="1" stop-color="rgb(12.243652%, 19.012451%, 81.968689%)" offset="0.203125"/><stop stop-opacity="1" stop-color="rgb(12.173462%, 19.393921%, 82.067871%)" offset="0.207031"/><stop stop-opacity="1" stop-color="rgb(12.104797%, 19.775391%, 82.168579%)" offset="0.210938"/><stop stop-opacity="1" stop-color="rgb(12.034607%, 20.15686%, 82.267761%)" offset="0.214844"/><stop stop-opacity="1" stop-color="rgb(11.965942%, 20.53833%, 82.368469%)" offset="0.21875"/><stop stop-opacity="1" stop-color="rgb(11.897278%, 20.9198%, 82.467651%)" offset="0.222656"/><stop stop-opacity="1" stop-color="rgb(11.828613%, 21.30127%, 82.568359%)" offset="0.226563"/><stop stop-opacity="1" stop-color="rgb(11.758423%, 21.682739%, 82.667542%)" offset="0.230469"/><stop stop-opacity="1" stop-color="rgb(11.689758%, 22.065735%, 82.76825%)" offset="0.234375"/><stop stop-opacity="1" stop-color="rgb(11.619568%, 22.447205%, 82.867432%)" offset="0.238281"/><stop stop-opacity="1" stop-color="rgb(11.550903%, 22.828674%, 82.96814%)" offset="0.242188"/><stop stop-opacity="1" stop-color="rgb(11.482239%, 23.210144%, 83.067322%)" offset="0.246094"/><stop stop-opacity="1" stop-color="rgb(11.413574%, 23.591614%, 83.16803%)" offset="0.25"/><stop stop-opacity="1" stop-color="rgb(11.343384%, 23.973083%, 83.267212%)" offset="0.253906"/><stop stop-opacity="1" stop-color="rgb(11.274719%, 24.354553%, 83.36792%)" offset="0.257813"/><stop stop-opacity="1" stop-color="rgb(11.206055%, 24.736023%, 83.467102%)" offset="0.261719"/><stop stop-opacity="1" stop-color="rgb(11.13739%, 25.119019%, 83.56781%)" offset="0.265625"/><stop stop-opacity="1" stop-color="rgb(11.0672%, 25.500488%, 83.666992%)" offset="0.269531"/><stop stop-opacity="1" stop-color="rgb(10.998535%, 25.881958%, 83.7677%)" offset="0.273438"/><stop stop-opacity="1" stop-color="rgb(10.928345%, 26.263428%, 83.866882%)" offset="0.277344"/><stop stop-opacity="1" stop-color="rgb(10.85968%, 26.644897%, 83.96759%)" offset="0.28125"/><stop stop-opacity="1" stop-color="rgb(10.791016%, 27.026367%, 84.066772%)" offset="0.285156"/><stop stop-opacity="1" stop-color="rgb(10.722351%, 27.407837%, 84.165955%)" offset="0.289063"/><stop stop-opacity="1" stop-color="rgb(10.652161%, 27.789307%, 84.265137%)" offset="0.292969"/><stop stop-opacity="1" stop-color="rgb(10.583496%, 28.170776%, 84.365845%)" offset="0.296875"/><stop stop-opacity="1" stop-color="rgb(10.513306%, 28.552246%, 84.465027%)" offset="0.300781"/><stop stop-opacity="1" stop-color="rgb(10.444641%, 28.935242%, 84.565735%)" offset="0.304688"/><stop stop-opacity="1" stop-color="rgb(10.375977%, 29.316711%, 84.664917%)" offset="0.308594"/><stop stop-opacity="1" stop-color="rgb(10.307312%, 29.698181%, 84.765625%)" offset="0.3125"/><stop stop-opacity="1" stop-color="rgb(10.237122%, 30.079651%, 84.864807%)" offset="0.316406"/><stop stop-opacity="1" stop-color="rgb(10.168457%, 30.461121%, 84.965515%)" offset="0.320313"/><stop stop-opacity="1" stop-color="rgb(10.098267%, 30.84259%, 85.064697%)" offset="0.324219"/><stop stop-opacity="1" stop-color="rgb(10.029602%, 31.22406%, 85.165405%)" offset="0.328125"/><stop stop-opacity="1" stop-color="rgb(9.960938%, 31.60553%, 85.264587%)" offset="0.332031"/><stop stop-opacity="1" stop-color="rgb(9.892273%, 31.987%, 85.365295%)" offset="0.335938"/><stop stop-opacity="1" stop-color="rgb(9.820557%, 32.391357%, 85.469055%)" offset="0.339844"/><stop stop-opacity="1" stop-color="rgb(9.750366%, 32.795715%, 85.572815%)" offset="0.34375"/><stop stop-opacity="1" stop-color="rgb(9.677124%, 33.244324%, 85.682678%)" offset="0.347656"/><stop stop-opacity="1" stop-color="rgb(9.605408%, 33.694458%, 85.792542%)" offset="0.351563"/><stop stop-opacity="1" stop-color="rgb(9.532166%, 34.143066%, 85.902405%)" offset="0.355469"/><stop stop-opacity="1" stop-color="rgb(9.458923%, 34.593201%, 86.013794%)" offset="0.359375"/><stop stop-opacity="1" stop-color="rgb(9.385681%, 35.041809%, 86.123657%)" offset="0.363281"/><stop stop-opacity="1" stop-color="rgb(9.312439%, 35.490417%, 86.235046%)" offset="0.367188"/><stop stop-opacity="1" stop-color="rgb(9.239197%, 35.939026%, 86.34491%)" offset="0.371094"/><stop stop-opacity="1" stop-color="rgb(9.16748%, 36.38916%, 86.456299%)" offset="0.375"/><stop stop-opacity="1" stop-color="rgb(9.094238%, 36.837769%, 86.566162%)" offset="0.378906"/><stop stop-opacity="1" stop-color="rgb(9.020996%, 37.287903%, 86.676025%)" offset="0.382813"/><stop stop-opacity="1" stop-color="rgb(8.947754%, 37.736511%, 86.785889%)" offset="0.386719"/><stop stop-opacity="1" stop-color="rgb(8.874512%, 38.186646%, 86.897278%)" offset="0.390625"/><stop stop-opacity="1" stop-color="rgb(8.80127%, 38.635254%, 87.007141%)" offset="0.394531"/><stop stop-opacity="1" stop-color="rgb(8.729553%, 39.083862%, 87.11853%)" offset="0.398438"/><stop stop-opacity="1" stop-color="rgb(8.656311%, 39.532471%, 87.228394%)" offset="0.402344"/><stop stop-opacity="1" stop-color="rgb(8.583069%, 39.982605%, 87.338257%)" offset="0.40625"/><stop stop-opacity="1" stop-color="rgb(8.509827%, 40.431213%, 87.44812%)" offset="0.410156"/><stop stop-opacity="1" stop-color="rgb(8.436584%, 40.881348%, 87.559509%)" offset="0.414063"/><stop stop-opacity="1" stop-color="rgb(8.363342%, 41.329956%, 87.669373%)" offset="0.417969"/><stop stop-opacity="1" stop-color="rgb(8.291626%, 41.78009%, 87.780762%)" offset="0.421875"/><stop stop-opacity="1" stop-color="rgb(8.218384%, 42.228699%, 87.890625%)" offset="0.425781"/><stop stop-opacity="1" stop-color="rgb(8.145142%, 42.678833%, 88.002014%)" offset="0.429688"/><stop stop-opacity="1" stop-color="rgb(8.071899%, 43.127441%, 88.111877%)" offset="0.433594"/><stop stop-opacity="1" stop-color="rgb(7.998657%, 43.57605%, 88.221741%)" offset="0.4375"/><stop stop-opacity="1" stop-color="rgb(7.925415%, 44.024658%, 88.331604%)" offset="0.441406"/><stop stop-opacity="1" stop-color="rgb(7.853699%, 44.474792%, 88.442993%)" offset="0.445313"/><stop stop-opacity="1" stop-color="rgb(7.780457%, 44.923401%, 88.552856%)" offset="0.449219"/><stop stop-opacity="1" stop-color="rgb(7.707214%, 45.373535%, 88.664246%)" offset="0.453125"/><stop stop-opacity="1" stop-color="rgb(7.633972%, 45.822144%, 88.774109%)" offset="0.457031"/><stop stop-opacity="1" stop-color="rgb(7.56073%, 46.272278%, 88.885498%)" offset="0.460938"/><stop stop-opacity="1" stop-color="rgb(7.487488%, 46.720886%, 88.995361%)" offset="0.464844"/><stop stop-opacity="1" stop-color="rgb(7.415771%, 47.171021%, 89.105225%)" offset="0.46875"/><stop stop-opacity="1" stop-color="rgb(7.342529%, 47.619629%, 89.215088%)" offset="0.472656"/><stop stop-opacity="1" stop-color="rgb(7.269287%, 48.068237%, 89.326477%)" offset="0.476563"/><stop stop-opacity="1" stop-color="rgb(7.196045%, 48.516846%, 89.43634%)" offset="0.480469"/><stop stop-opacity="1" stop-color="rgb(7.122803%, 48.96698%, 89.547729%)" offset="0.484375"/><stop stop-opacity="1" stop-color="rgb(7.049561%, 49.415588%, 89.657593%)" offset="0.488281"/><stop stop-opacity="1" stop-color="rgb(6.977844%, 49.865723%, 89.768982%)" offset="0.492188"/><stop stop-opacity="1" stop-color="rgb(6.904602%, 50.314331%, 89.878845%)" offset="0.496094"/><stop stop-opacity="1" stop-color="rgb(6.83136%, 50.764465%, 89.988708%)" offset="0.5"/><stop stop-opacity="1" stop-color="rgb(6.758118%, 51.213074%, 90.098572%)" offset="0.503906"/><stop stop-opacity="1" stop-color="rgb(6.684875%, 51.663208%, 90.209961%)" offset="0.507813"/><stop stop-opacity="1" stop-color="rgb(6.611633%, 52.111816%, 90.319824%)" offset="0.511719"/><stop stop-opacity="1" stop-color="rgb(6.539917%, 52.560425%, 90.431213%)" offset="0.515625"/><stop stop-opacity="1" stop-color="rgb(6.466675%, 53.009033%, 90.541077%)" offset="0.519531"/><stop stop-opacity="1" stop-color="rgb(6.393433%, 53.459167%, 90.652466%)" offset="0.523438"/><stop stop-opacity="1" stop-color="rgb(6.32019%, 53.907776%, 90.762329%)" offset="0.527344"/><stop stop-opacity="1" stop-color="rgb(6.246948%, 54.35791%, 90.872192%)" offset="0.53125"/><stop stop-opacity="1" stop-color="rgb(6.173706%, 54.806519%, 90.982056%)" offset="0.535156"/><stop stop-opacity="1" stop-color="rgb(6.100464%, 55.256653%, 91.093445%)" offset="0.539063"/><stop stop-opacity="1" stop-color="rgb(6.027222%, 55.705261%, 91.203308%)" offset="0.542969"/><stop stop-opacity="1" stop-color="rgb(5.955505%, 56.155396%, 91.314697%)" offset="0.546875"/><stop stop-opacity="1" stop-color="rgb(5.870056%, 56.642151%, 91.435242%)" offset="0.550781"/><stop stop-opacity="1" stop-color="rgb(5.784607%, 57.128906%, 91.557312%)" offset="0.554688"/><stop stop-opacity="1" stop-color="rgb(5.691528%, 57.63855%, 91.685486%)" offset="0.558594"/><stop stop-opacity="1" stop-color="rgb(5.599976%, 58.148193%, 91.815186%)" offset="0.5625"/><stop stop-opacity="1" stop-color="rgb(5.506897%, 58.657837%, 91.943359%)" offset="0.566406"/><stop stop-opacity="1" stop-color="rgb(5.413818%, 59.169006%, 92.073059%)" offset="0.570313"/><stop stop-opacity="1" stop-color="rgb(5.32074%, 59.67865%, 92.201233%)" offset="0.574219"/><stop stop-opacity="1" stop-color="rgb(5.229187%, 60.189819%, 92.330933%)" offset="0.578125"/><stop stop-opacity="1" stop-color="rgb(5.136108%, 60.699463%, 92.459106%)" offset="0.582031"/><stop stop-opacity="1" stop-color="rgb(5.044556%, 61.209106%, 92.58728%)" offset="0.585938"/><stop stop-opacity="1" stop-color="rgb(4.951477%, 61.71875%, 92.715454%)" offset="0.589844"/><stop stop-opacity="1" stop-color="rgb(4.858398%, 62.229919%, 92.845154%)" offset="0.59375"/><stop stop-opacity="1" stop-color="rgb(4.76532%, 62.739563%, 92.973328%)" offset="0.597656"/><stop stop-opacity="1" stop-color="rgb(4.673767%, 63.250732%, 93.103027%)" offset="0.601563"/><stop stop-opacity="1" stop-color="rgb(4.580688%, 63.760376%, 93.231201%)" offset="0.605469"/><stop stop-opacity="1" stop-color="rgb(4.48761%, 64.271545%, 93.359375%)" offset="0.609375"/><stop stop-opacity="1" stop-color="rgb(4.394531%, 64.781189%, 93.487549%)" offset="0.613281"/><stop stop-opacity="1" stop-color="rgb(4.302979%, 65.290833%, 93.617249%)" offset="0.617188"/><stop stop-opacity="1" stop-color="rgb(4.2099%, 65.800476%, 93.745422%)" offset="0.621094"/><stop stop-opacity="1" stop-color="rgb(4.118347%, 66.311646%, 93.875122%)" offset="0.625"/><stop stop-opacity="1" stop-color="rgb(4.025269%, 66.821289%, 94.003296%)" offset="0.628906"/><stop stop-opacity="1" stop-color="rgb(3.93219%, 67.332458%, 94.132996%)" offset="0.632813"/><stop stop-opacity="1" stop-color="rgb(3.839111%, 67.842102%, 94.261169%)" offset="0.636719"/><stop stop-opacity="1" stop-color="rgb(3.747559%, 68.353271%, 94.389343%)" offset="0.640625"/><stop stop-opacity="1" stop-color="rgb(3.65448%, 68.862915%, 94.517517%)" offset="0.644531"/><stop stop-opacity="1" stop-color="rgb(3.561401%, 69.372559%, 94.647217%)" offset="0.648438"/><stop stop-opacity="1" stop-color="rgb(3.468323%, 69.882202%, 94.775391%)" offset="0.652344"/><stop stop-opacity="1" stop-color="rgb(3.37677%, 70.393372%, 94.90509%)" offset="0.65625"/><stop stop-opacity="1" stop-color="rgb(3.283691%, 70.903015%, 95.033264%)" offset="0.660156"/><stop stop-opacity="1" stop-color="rgb(3.192139%, 71.414185%, 95.162964%)" offset="0.664063"/><stop stop-opacity="1" stop-color="rgb(3.09906%, 71.923828%, 95.291138%)" offset="0.667969"/><stop stop-opacity="1" stop-color="rgb(3.005981%, 72.433472%, 95.419312%)" offset="0.671875"/><stop stop-opacity="1" stop-color="rgb(2.912903%, 72.943115%, 95.547485%)" offset="0.675781"/><stop stop-opacity="1" stop-color="rgb(2.82135%, 73.454285%, 95.677185%)" offset="0.679688"/><stop stop-opacity="1" stop-color="rgb(2.728271%, 73.963928%, 95.805359%)" offset="0.683594"/><stop stop-opacity="1" stop-color="rgb(2.636719%, 74.475098%, 95.935059%)" offset="0.6875"/><stop stop-opacity="1" stop-color="rgb(2.54364%, 74.984741%, 96.063232%)" offset="0.691406"/><stop stop-opacity="1" stop-color="rgb(2.450562%, 75.495911%, 96.191406%)" offset="0.695313"/><stop stop-opacity="1" stop-color="rgb(2.357483%, 76.005554%, 96.31958%)" offset="0.699219"/><stop stop-opacity="1" stop-color="rgb(2.26593%, 76.515198%, 96.44928%)" offset="0.703125"/><stop stop-opacity="1" stop-color="rgb(2.172852%, 77.024841%, 96.577454%)" offset="0.707031"/><stop stop-opacity="1" stop-color="rgb(2.079773%, 77.536011%, 96.707153%)" offset="0.710938"/><stop stop-opacity="1" stop-color="rgb(1.986694%, 78.045654%, 96.835327%)" offset="0.714844"/><stop stop-opacity="1" stop-color="rgb(1.895142%, 78.556824%, 96.965027%)" offset="0.71875"/><stop stop-opacity="1" stop-color="rgb(1.802063%, 79.066467%, 97.093201%)" offset="0.722656"/><stop stop-opacity="1" stop-color="rgb(1.71051%, 79.576111%, 97.221375%)" offset="0.726563"/><stop stop-opacity="1" stop-color="rgb(1.617432%, 80.085754%, 97.349548%)" offset="0.730469"/><stop stop-opacity="1" stop-color="rgb(1.524353%, 80.596924%, 97.479248%)" offset="0.734375"/><stop stop-opacity="1" stop-color="rgb(1.431274%, 81.106567%, 97.607422%)" offset="0.738281"/><stop stop-opacity="1" stop-color="rgb(1.339722%, 81.617737%, 97.737122%)" offset="0.742188"/><stop stop-opacity="1" stop-color="rgb(1.246643%, 82.12738%, 97.865295%)" offset="0.746094"/><stop stop-opacity="1" stop-color="rgb(1.153564%, 82.63855%, 97.994995%)" offset="0.75"/><stop stop-opacity="1" stop-color="rgb(1.060486%, 83.148193%, 98.123169%)" offset="0.753906"/><stop stop-opacity="1" stop-color="rgb(0.968933%, 83.657837%, 98.251343%)" offset="0.757813"/><stop stop-opacity="1" stop-color="rgb(0.875854%, 84.16748%, 98.379517%)" offset="0.761719"/><stop stop-opacity="1" stop-color="rgb(0.784302%, 84.67865%, 98.509216%)" offset="0.765625"/><stop stop-opacity="1" stop-color="rgb(0.691223%, 85.188293%, 98.63739%)" offset="0.769531"/><stop stop-opacity="1" stop-color="rgb(0.598145%, 85.699463%, 98.76709%)" offset="0.773438"/><stop stop-opacity="1" stop-color="rgb(0.505066%, 86.209106%, 98.895264%)" offset="0.777344"/><stop stop-opacity="1" stop-color="rgb(0.413513%, 86.720276%, 99.023438%)" offset="0.78125"/><stop stop-opacity="1" stop-color="rgb(0.320435%, 87.229919%, 99.151611%)" offset="0.785156"/><stop stop-opacity="1" stop-color="rgb(0.227356%, 87.739563%, 99.281311%)" offset="0.789063"/><stop stop-opacity="1" stop-color="rgb(0.134277%, 88.249207%, 99.409485%)" offset="0.792969"/><stop stop-opacity="1" stop-color="rgb(0.0427246%, 88.760376%, 99.539185%)" offset="0.796875"/><stop stop-opacity="1" stop-color="rgb(0.0213623%, 89.176941%, 99.717712%)" offset="0.800781"/><stop stop-opacity="1" stop-color="rgb(0%, 89.595032%, 99.897766%)" offset="0.804688"/><stop stop-opacity="1" stop-color="rgb(0%, 89.697266%, 99.94812%)" offset="0.8125"/><stop stop-opacity="1" stop-color="rgb(0%, 89.7995%, 100%)" offset="0.875"/><stop stop-opacity="1" stop-color="rgb(0%, 89.7995%, 100%)" offset="1"/></linearGradient></defs><path fill="#000000" d="M 84.601562 11.433594 L 89.671875 11.433594 C 90.035156 11.433594 90.363281 11.660156 90.488281 12.003906 L 103.453125 47.570312 C 103.5 47.691406 103.410156 47.820312 103.28125 47.820312 L 98.429688 47.820312 C 98.058594 47.820312 97.734375 47.589844 97.609375 47.242188 L 94.046875 37.1875 L 79.792969 37.1875 L 76.074219 47.253906 C 75.949219 47.597656 75.621094 47.820312 75.261719 47.820312 L 70.566406 47.820312 C 70.4375 47.820312 70.347656 47.691406 70.394531 47.570312 L 83.789062 11.996094 C 83.917969 11.65625 84.242188 11.433594 84.605469 11.433594 Z M 92.410156 32.367188 L 87.003906 17.351562 L 81.4375 32.367188 Z M 92.410156 32.367188 " fill-opacity="1" fill-rule="nonzero"/><path fill="#000000" d="M 128.300781 46.199219 C 126.25 44.867188 123.179688 44.199219 119.109375 44.199219 L 113.753906 44.199219 C 112.558594 44.199219 111.578125 44.011719 110.835938 43.628906 C 110.089844 43.242188 109.714844 42.738281 109.714844 42.117188 C 109.714844 41.53125 110 41.070312 110.566406 40.722656 C 111.125 40.375 111.882812 40.21875 112.832031 40.253906 L 113.199219 40.253906 C 114.265625 40.582031 115.414062 40.75 116.648438 40.75 C 119.921875 40.75 122.554688 39.871094 124.539062 38.117188 C 126.523438 36.359375 127.515625 34.023438 127.515625 31.101562 C 127.515625 30.136719 127.394531 29.226562 127.148438 28.375 C 127.582031 27.886719 128.109375 27.484375 128.664062 27.476562 C 129.710938 27.363281 130.539062 26.472656 130.539062 25.386719 C 130.539062 24.496094 129.992188 23.738281 129.203125 23.4375 C 128.964844 23.34375 128.710938 23.296875 128.449219 23.296875 C 127.875 23.296875 127.359375 23.527344 126.976562 23.90625 C 126.949219 23.9375 126.917969 23.972656 126.882812 24.003906 C 126.816406 24.09375 126.75 24.1875 126.6875 24.277344 C 126.679688 24.292969 126.671875 24.3125 126.65625 24.320312 C 126.359375 24.75 126.105469 25.222656 125.886719 25.753906 C 124.949219 24.410156 123.730469 23.367188 122.222656 22.609375 C 120.621094 21.8125 118.851562 21.410156 116.921875 21.410156 C 114.886719 21.410156 113.035156 21.832031 111.378906 22.667969 C 109.726562 23.507812 108.425781 24.679688 107.472656 26.175781 C 106.53125 27.671875 106.050781 29.335938 106.050781 31.164062 C 106.050781 32.621094 106.371094 33.984375 107.011719 35.246094 C 107.652344 36.503906 108.570312 37.574219 109.769531 38.449219 C 108.273438 38.816406 107.121094 39.394531 106.300781 40.175781 C 105.480469 40.964844 105.078125 41.917969 105.078125 43.058594 C 105.078125 44.109375 105.472656 45.046875 106.273438 45.851562 C 107.074219 46.65625 108.128906 47.242188 109.4375 47.605469 C 107.945312 48.15625 106.773438 48.929688 105.921875 49.933594 C 105.058594 50.941406 104.632812 52.066406 104.632812 53.3125 C 104.632812 55.757812 105.746094 57.605469 107.960938 58.867188 C 110.183594 60.125 113.40625 60.761719 117.632812 60.761719 C 121.855469 60.761719 125.292969 60.003906 127.730469 58.488281 C 130.171875 56.976562 131.386719 54.875 131.386719 52.210938 C 131.386719 49.542969 130.359375 47.542969 128.304688 46.207031 Z M 111.019531 30.996094 C 111.019531 29.390625 111.566406 28.070312 112.660156 27.023438 C 113.75 25.984375 115.136719 25.46875 116.8125 25.46875 C 118.484375 25.46875 119.976562 25.976562 121.070312 27 C 122.160156 28.019531 122.710938 29.339844 122.710938 30.945312 L 122.710938 31.226562 C 122.710938 32.867188 122.183594 34.175781 121.128906 35.144531 C 120.066406 36.109375 118.632812 36.59375 116.816406 36.59375 C 114.996094 36.59375 113.664062 36.097656 112.609375 35.113281 C 111.5625 34.125 111.027344 32.832031 111.027344 31.226562 L 111.027344 31.003906 Z M 124.289062 55.578125 C 122.6875 56.328125 120.523438 56.699219 117.792969 56.699219 C 115.0625 56.699219 112.914062 56.363281 111.453125 55.6875 C 110.003906 55.011719 109.273438 54.070312 109.273438 52.863281 C 109.273438 52.066406 109.527344 51.363281 110.035156 50.78125 C 110.542969 50.195312 111.253906 49.742188 112.164062 49.414062 C 113.074219 49.085938 114.074219 48.886719 115.167969 48.8125 L 118.9375 48.8125 C 120.753906 48.8125 122.226562 48.945312 123.359375 49.222656 C 124.480469 49.496094 125.320312 49.898438 125.867188 50.421875 C 126.414062 50.949219 126.6875 51.65625 126.6875 52.53125 C 126.6875 53.816406 125.886719 54.828125 124.285156 55.578125 Z M 124.289062 55.578125 " fill-opacity="1" fill-rule="nonzero"/><path fill="#000000" d="M 156.722656 34.722656 C 156.722656 34.507812 156.722656 34.277344 156.714844 34.054688 C 156.675781 32.75 156.515625 31.527344 156.25 30.402344 C 156.207031 30.222656 156.15625 30.03125 156.101562 29.84375 C 156.039062 29.628906 155.972656 29.40625 155.902344 29.1875 C 155.832031 28.988281 155.757812 28.785156 155.675781 28.585938 C 155.601562 28.386719 155.523438 28.195312 155.429688 28.003906 C 155.195312 27.464844 154.910156 26.953125 154.589844 26.46875 C 154.480469 26.304688 154.375 26.140625 154.253906 25.972656 C 154.136719 25.820312 154.019531 25.652344 153.890625 25.496094 C 153.773438 25.351562 153.644531 25.207031 153.507812 25.070312 C 153.472656 25.023438 153.433594 24.976562 153.390625 24.933594 C 153.28125 24.820312 153.179688 24.714844 153.0625 24.605469 C 152.925781 24.46875 152.792969 24.347656 152.65625 24.21875 C 152.554688 24.128906 152.457031 24.046875 152.347656 23.953125 C 152.148438 23.800781 151.945312 23.644531 151.734375 23.507812 C 151.582031 23.394531 151.414062 23.289062 151.242188 23.1875 C 151.113281 23.105469 150.988281 23.03125 150.851562 22.957031 C 150.769531 22.902344 150.6875 22.863281 150.597656 22.820312 C 150.296875 22.664062 149.980469 22.527344 149.660156 22.398438 C 149.480469 22.324219 149.289062 22.25 149.097656 22.1875 C 148.988281 22.152344 148.867188 22.113281 148.761719 22.078125 C 148.644531 22.039062 148.515625 22.003906 148.398438 21.976562 C 147.835938 21.824219 147.25 21.710938 146.648438 21.640625 C 146.503906 21.625 146.359375 21.605469 146.210938 21.597656 C 146.113281 21.578125 146.011719 21.570312 145.921875 21.570312 C 145.839844 21.5625 145.765625 21.554688 145.691406 21.554688 C 145.347656 21.527344 144.984375 21.515625 144.617188 21.515625 L 144.582031 21.515625 C 144.292969 21.515625 143.988281 21.523438 143.699219 21.542969 C 143.414062 21.558594 143.125 21.585938 142.84375 21.625 C 142.574219 21.660156 142.300781 21.695312 142.023438 21.761719 C 141.925781 21.765625 141.816406 21.796875 141.714844 21.824219 C 140.441406 22.097656 139.238281 22.574219 138.132812 23.238281 C 136.222656 24.390625 134.71875 25.984375 133.628906 28.03125 C 132.855469 29.484375 132.355469 31.082031 132.132812 32.824219 C 132.109375 33 132.089844 33.171875 132.070312 33.355469 C 132.046875 33.589844 132.027344 33.832031 132.015625 34.074219 C 131.996094 34.339844 131.992188 34.601562 131.992188 34.878906 C 131.992188 35.132812 131.996094 35.390625 132.007812 35.648438 C 132.027344 36.011719 132.054688 36.367188 132.089844 36.734375 C 132.269531 38.667969 132.753906 40.441406 133.574219 42.003906 C 133.753906 42.359375 133.957031 42.699219 134.183594 43.019531 C 134.394531 43.339844 134.609375 43.652344 134.847656 43.945312 C 134.996094 44.117188 135.140625 44.289062 135.289062 44.453125 C 135.421875 44.601562 135.570312 44.746094 135.707031 44.894531 C 135.75 44.929688 135.78125 44.96875 135.816406 44.992188 C 135.964844 45.128906 136.109375 45.257812 136.253906 45.382812 C 136.421875 45.53125 136.589844 45.667969 136.773438 45.804688 C 137.21875 46.140625 137.695312 46.457031 138.183594 46.71875 C 138.375 46.828125 138.566406 46.917969 138.765625 47.007812 C 140.449219 47.816406 142.378906 48.226562 144.570312 48.242188 C 144.652344 48.25 144.742188 48.25 144.824219 48.25 C 145.207031 48.25 145.589844 48.242188 145.960938 48.226562 L 145.980469 48.226562 C 146.644531 48.179688 147.289062 48.105469 147.902344 48.007812 C 148.011719 47.988281 148.117188 47.96875 148.226562 47.945312 C 148.636719 47.863281 149.054688 47.761719 149.457031 47.640625 C 152.261719 46.785156 154.597656 44.957031 155.820312 41.582031 C 155.839844 41.519531 156.03125 40.898438 156.140625 40.523438 L 156.164062 40.429688 L 156.164062 40.421875 C 156.183594 40.257812 156.101562 40.222656 155.957031 40.222656 L 151.722656 40.222656 C 151.59375 40.222656 151.476562 40.292969 151.410156 40.410156 C 150.90625 41.289062 150.378906 42.03125 149.574219 42.636719 C 149.429688 42.746094 149.285156 42.847656 149.128906 42.9375 C 149.105469 42.957031 149.074219 42.964844 149.050781 42.984375 C 147.972656 43.613281 146.566406 43.925781 144.828125 43.925781 C 144.675781 43.925781 144.519531 43.925781 144.363281 43.90625 C 144.246094 43.90625 144.136719 43.90625 144.019531 43.898438 C 142.171875 43.75 140.679688 43.113281 139.535156 41.984375 C 138.222656 40.6875 137.476562 38.925781 137.296875 36.691406 L 156.546875 36.691406 C 156.652344 36.691406 156.730469 36.613281 156.730469 36.507812 L 156.730469 34.722656 Z M 137.175781 32.695312 C 137.429688 30.578125 138.21875 28.90625 139.546875 27.679688 C 140.414062 26.886719 141.402344 26.347656 142.542969 26.0625 C 142.742188 26.007812 142.953125 25.980469 143.160156 25.953125 C 143.335938 25.914062 143.515625 25.898438 143.699219 25.878906 C 143.847656 25.871094 143.988281 25.859375 144.136719 25.851562 C 144.253906 25.851562 144.371094 25.84375 144.488281 25.84375 C 144.742188 25.84375 144.996094 25.851562 145.238281 25.871094 L 145.246094 25.871094 C 146.960938 26 148.328125 26.574219 149.347656 27.597656 C 150.511719 28.765625 151.148438 30.464844 151.257812 32.691406 L 137.171875 32.691406 Z M 137.175781 32.695312 " fill-opacity="1" fill-rule="nonzero"/><path fill="#000000" d="M 257.238281 34.722656 C 257.238281 34.507812 257.238281 34.277344 257.230469 34.054688 C 257.195312 32.75 257.03125 31.527344 256.765625 30.402344 C 256.722656 30.222656 256.675781 30.03125 256.621094 29.84375 C 256.558594 29.628906 256.492188 29.40625 256.421875 29.1875 C 256.347656 28.988281 256.273438 28.785156 256.191406 28.585938 C 256.117188 28.386719 256.039062 28.195312 255.945312 28.003906 C 255.710938 27.464844 255.425781 26.953125 255.105469 26.46875 C 254.996094 26.304688 254.890625 26.140625 254.773438 25.972656 C 254.65625 25.820312 254.535156 25.652344 254.40625 25.496094 C 254.289062 25.351562 254.160156 25.207031 254.023438 25.070312 C 253.988281 25.023438 253.953125 24.976562 253.90625 24.933594 C 253.796875 24.820312 253.699219 24.714844 253.582031 24.605469 C 253.445312 24.46875 253.308594 24.347656 253.171875 24.21875 C 253.074219 24.128906 252.972656 24.046875 252.863281 23.953125 C 252.664062 23.800781 252.460938 23.644531 252.25 23.507812 C 252.097656 23.394531 251.933594 23.289062 251.757812 23.1875 C 251.628906 23.105469 251.503906 23.03125 251.367188 22.957031 C 251.289062 22.902344 251.203125 22.863281 251.113281 22.820312 C 250.8125 22.664062 250.496094 22.527344 250.175781 22.398438 C 249.996094 22.324219 249.804688 22.25 249.613281 22.1875 C 249.503906 22.152344 249.386719 22.113281 249.277344 22.078125 C 249.160156 22.039062 249.03125 22.003906 248.914062 21.976562 C 248.351562 21.824219 247.765625 21.710938 247.167969 21.640625 C 247.019531 21.625 246.875 21.605469 246.730469 21.597656 C 246.628906 21.578125 246.53125 21.570312 246.4375 21.570312 C 246.355469 21.5625 246.285156 21.554688 246.210938 21.554688 C 245.863281 21.527344 245.5 21.515625 245.136719 21.515625 L 245.097656 21.515625 C 244.808594 21.515625 244.507812 21.523438 244.214844 21.542969 C 243.933594 21.558594 243.640625 21.585938 243.363281 21.625 C 243.089844 21.660156 242.816406 21.695312 242.542969 21.761719 C 242.441406 21.765625 242.332031 21.796875 242.230469 21.824219 C 240.957031 22.097656 239.753906 22.574219 238.648438 23.238281 C 236.738281 24.390625 235.238281 25.984375 234.144531 28.03125 C 233.371094 29.484375 232.871094 31.082031 232.648438 32.824219 C 232.625 33 232.605469 33.171875 232.585938 33.355469 C 232.5625 33.589844 232.542969 33.832031 232.53125 34.074219 C 232.515625 34.339844 232.507812 34.601562 232.507812 34.878906 C 232.507812 35.132812 232.515625 35.390625 232.523438 35.648438 C 232.542969 36.011719 232.570312 36.367188 232.605469 36.734375 C 232.785156 38.667969 233.273438 40.441406 234.089844 42.003906 C 234.269531 42.359375 234.472656 42.699219 234.699219 43.019531 C 234.910156 43.339844 235.125 43.652344 235.367188 43.945312 C 235.511719 44.117188 235.65625 44.289062 235.804688 44.453125 C 235.941406 44.601562 236.085938 44.746094 236.222656 44.894531 C 236.265625 44.929688 236.296875 44.96875 236.332031 44.992188 C 236.480469 45.128906 236.625 45.257812 236.773438 45.382812 C 236.9375 45.53125 237.105469 45.667969 237.289062 45.804688 C 237.734375 46.140625 238.210938 46.457031 238.699219 46.71875 C 238.890625 46.828125 239.082031 46.917969 239.28125 47.007812 C 240.964844 47.816406 242.894531 48.226562 245.085938 48.242188 C 245.167969 48.25 245.261719 48.25 245.339844 48.25 C 245.722656 48.25 246.105469 48.242188 246.476562 48.226562 L 246.496094 48.226562 C 247.164062 48.179688 247.808594 48.105469 248.417969 48.007812 C 248.527344 47.988281 248.632812 47.96875 248.746094 47.945312 C 249.152344 47.863281 249.574219 47.761719 249.972656 47.640625 C 252.777344 46.785156 255.113281 44.957031 256.335938 41.582031 C 256.355469 41.519531 256.546875 40.898438 256.65625 40.523438 L 256.683594 40.429688 L 256.683594 40.421875 C 256.699219 40.257812 256.621094 40.222656 256.472656 40.222656 L 252.242188 40.222656 C 252.113281 40.222656 251.996094 40.292969 251.929688 40.410156 C 251.425781 41.289062 250.894531 42.03125 250.09375 42.636719 C 249.945312 42.746094 249.800781 42.847656 249.648438 42.9375 C 249.621094 42.957031 249.589844 42.964844 249.566406 42.984375 C 248.492188 43.613281 247.082031 43.925781 245.34375 43.925781 C 245.191406 43.925781 245.035156 43.925781 244.882812 43.90625 C 244.765625 43.90625 244.652344 43.90625 244.535156 43.898438 C 242.6875 43.75 241.195312 43.113281 240.050781 41.984375 C 238.738281 40.6875 237.992188 38.925781 237.8125 36.691406 L 257.070312 36.691406 C 257.167969 36.691406 257.253906 36.613281 257.253906 36.507812 L 257.253906 34.71875 Z M 237.691406 32.695312 C 237.945312 30.578125 238.738281 28.90625 240.066406 27.679688 C 240.929688 26.886719 241.917969 26.347656 243.058594 26.0625 C 243.257812 26.007812 243.46875 25.980469 243.679688 25.953125 C 243.851562 25.914062 244.03125 25.898438 244.214844 25.878906 C 244.363281 25.871094 244.507812 25.859375 244.652344 25.851562 C 244.769531 25.851562 244.890625 25.84375 245.007812 25.84375 C 245.261719 25.84375 245.515625 25.851562 245.753906 25.871094 L 245.761719 25.871094 C 247.480469 26 248.84375 26.574219 249.863281 27.597656 C 251.03125 28.765625 251.667969 30.464844 251.773438 32.691406 L 237.6875 32.691406 Z M 237.691406 32.695312 " fill-opacity="1" fill-rule="nonzero"/><g clip-path="url(#f30772155c)"><path fill="#000000" d="M 335.148438 34.722656 C 335.148438 34.507812 335.148438 34.277344 335.140625 34.054688 C 335.101562 32.75 334.941406 31.527344 334.675781 30.402344 C 334.632812 30.222656 334.582031 30.03125 334.527344 29.84375 C 334.464844 29.628906 334.398438 29.40625 334.328125 29.1875 C 334.257812 28.988281 334.183594 28.785156 334.101562 28.585938 C 334.027344 28.386719 333.945312 28.195312 333.855469 28.003906 C 333.621094 27.464844 333.335938 26.953125 333.015625 26.46875 C 332.90625 26.304688 332.800781 26.140625 332.679688 25.972656 C 332.5625 25.820312 332.445312 25.652344 332.316406 25.496094 C 332.199219 25.351562 332.070312 25.207031 331.933594 25.070312 C 331.898438 25.023438 331.859375 24.976562 331.816406 24.933594 C 331.707031 24.820312 331.605469 24.714844 331.488281 24.605469 C 331.351562 24.46875 331.214844 24.347656 331.082031 24.21875 C 330.980469 24.128906 330.882812 24.046875 330.769531 23.953125 C 330.574219 23.800781 330.371094 23.644531 330.160156 23.507812 C 330.007812 23.394531 329.839844 23.289062 329.667969 23.1875 C 329.539062 23.105469 329.414062 23.03125 329.277344 22.957031 C 329.195312 22.902344 329.113281 22.863281 329.023438 22.820312 C 328.722656 22.664062 328.40625 22.527344 328.085938 22.398438 C 327.90625 22.324219 327.714844 22.25 327.523438 22.1875 C 327.410156 22.152344 327.292969 22.113281 327.1875 22.078125 C 327.070312 22.039062 326.941406 22.003906 326.824219 21.976562 C 326.261719 21.824219 325.675781 21.710938 325.074219 21.640625 C 324.929688 21.625 324.785156 21.605469 324.636719 21.597656 C 324.539062 21.578125 324.4375 21.570312 324.347656 21.570312 C 324.265625 21.5625 324.191406 21.554688 324.117188 21.554688 C 323.773438 21.527344 323.410156 21.515625 323.042969 21.515625 L 323.007812 21.515625 C 322.714844 21.515625 322.414062 21.523438 322.125 21.542969 C 321.839844 21.558594 321.550781 21.585938 321.269531 21.625 C 321 21.660156 320.726562 21.695312 320.449219 21.761719 C 320.351562 21.765625 320.242188 21.796875 320.140625 21.824219 C 318.867188 22.097656 317.664062 22.574219 316.558594 23.238281 C 314.648438 24.390625 313.144531 25.984375 312.054688 28.03125 C 311.28125 29.484375 310.78125 31.082031 310.558594 32.824219 C 310.535156 33 310.515625 33.171875 310.496094 33.355469 C 310.472656 33.589844 310.453125 33.832031 310.441406 34.074219 C 310.421875 34.339844 310.414062 34.601562 310.414062 34.878906 C 310.414062 35.132812 310.421875 35.390625 310.433594 35.648438 C 310.453125 36.011719 310.476562 36.367188 310.515625 36.734375 C 310.695312 38.667969 311.179688 40.441406 311.996094 42.003906 C 312.179688 42.359375 312.378906 42.699219 312.609375 43.019531 C 312.820312 43.339844 313.035156 43.652344 313.273438 43.945312 C 313.421875 44.117188 313.566406 44.289062 313.710938 44.453125 C 313.847656 44.601562 313.996094 44.746094 314.132812 44.894531 C 314.175781 44.929688 314.207031 44.96875 314.242188 44.992188 C 314.390625 45.128906 314.535156 45.257812 314.679688 45.382812 C 314.847656 45.53125 315.015625 45.667969 315.199219 45.804688 C 315.644531 46.140625 316.121094 46.457031 316.609375 46.71875 C 316.800781 46.828125 316.992188 46.917969 317.191406 47.007812 C 318.875 47.816406 320.804688 48.226562 322.996094 48.242188 C 323.078125 48.25 323.167969 48.25 323.25 48.25 C 323.632812 48.25 324.015625 48.242188 324.386719 48.226562 L 324.40625 48.226562 C 325.070312 48.179688 325.714844 48.105469 326.328125 48.007812 C 326.4375 47.988281 326.542969 47.96875 326.652344 47.945312 C 327.0625 47.863281 327.480469 47.761719 327.882812 47.640625 C 330.6875 46.785156 333.023438 44.957031 334.246094 41.582031 C 334.261719 41.519531 334.453125 40.898438 334.566406 40.523438 L 334.589844 40.429688 L 334.589844 40.421875 C 334.609375 40.257812 334.527344 40.222656 334.382812 40.222656 L 330.148438 40.222656 C 330.019531 40.222656 329.902344 40.292969 329.835938 40.410156 C 329.332031 41.289062 328.804688 42.03125 328 42.636719 C 327.855469 42.746094 327.710938 42.847656 327.554688 42.9375 C 327.53125 42.957031 327.5 42.964844 327.472656 42.984375 C 326.398438 43.613281 324.992188 43.925781 323.253906 43.925781 C 323.097656 43.925781 322.945312 43.925781 322.789062 43.90625 C 322.671875 43.90625 322.5625 43.90625 322.445312 43.898438 C 320.597656 43.75 319.101562 43.113281 317.960938 41.984375 C 316.648438 40.6875 315.902344 38.925781 315.722656 36.691406 L 334.980469 36.691406 C 335.082031 36.691406 335.15625 36.613281 335.15625 36.515625 L 335.15625 34.722656 Z M 315.601562 32.695312 C 315.855469 30.578125 316.644531 28.90625 317.972656 27.679688 C 318.839844 26.886719 319.828125 26.347656 320.96875 26.0625 C 321.167969 26.007812 321.378906 25.980469 321.585938 25.953125 C 321.761719 25.914062 321.941406 25.898438 322.125 25.878906 C 322.273438 25.871094 322.414062 25.859375 322.5625 25.851562 C 322.679688 25.851562 322.796875 25.84375 322.914062 25.84375 C 323.167969 25.84375 323.421875 25.851562 323.664062 25.871094 L 323.667969 25.871094 C 325.386719 26 326.753906 26.574219 327.773438 27.597656 C 328.9375 28.765625 329.574219 30.464844 329.683594 32.691406 L 315.597656 32.691406 Z M 315.601562 32.695312 " fill-opacity="1" fill-rule="nonzero"/></g><path fill="#000000" d="M 161.519531 21.957031 L 165.765625 21.957031 C 165.867188 21.957031 165.949219 22.035156 165.949219 22.140625 L 165.949219 26.886719 C 166.640625 25.132812 167.648438 23.78125 168.980469 22.832031 C 170.308594 21.882812 171.941406 21.40625 173.867188 21.40625 C 176.707031 21.40625 178.910156 22.328125 180.472656 24.171875 C 182.035156 26.019531 182.820312 28.636719 182.820312 32.035156 L 182.820312 47.640625 C 182.820312 47.742188 182.738281 47.820312 182.640625 47.820312 L 178.386719 47.820312 C 177.910156 47.820312 177.523438 47.433594 177.523438 46.953125 L 177.523438 32.367188 C 177.523438 30.320312 177.085938 28.769531 176.210938 27.710938 C 175.339844 26.648438 174.027344 26.121094 172.28125 26.121094 C 170.242188 26.121094 168.679688 26.925781 167.585938 28.535156 C 166.496094 30.140625 165.949219 32.460938 165.949219 35.492188 L 165.949219 46.957031 C 165.949219 47.4375 165.5625 47.824219 165.085938 47.824219 L 160.832031 47.824219 C 160.730469 47.824219 160.652344 47.746094 160.652344 47.644531 L 160.652344 22.824219 C 160.652344 22.34375 161.039062 21.957031 161.515625 21.957031 Z M 161.519531 21.957031 " fill-opacity="1" fill-rule="nonzero"/><path fill="#000000" d="M 262.03125 21.957031 L 266.277344 21.957031 C 266.382812 21.957031 266.460938 22.035156 266.460938 22.140625 L 266.460938 26.886719 C 267.152344 25.132812 268.164062 23.78125 269.496094 22.832031 C 270.824219 21.882812 272.453125 21.40625 274.382812 21.40625 C 277.222656 21.40625 279.421875 22.328125 280.984375 24.171875 C 282.550781 26.019531 283.332031 28.636719 283.332031 32.035156 L 283.332031 47.640625 C 283.332031 47.742188 283.253906 47.820312 283.152344 47.820312 L 278.898438 47.820312 C 278.421875 47.820312 278.035156 47.433594 278.035156 46.953125 L 278.035156 32.367188 C 278.035156 30.320312 277.597656 28.769531 276.726562 27.710938 C 275.851562 26.648438 274.539062 26.121094 272.796875 26.121094 C 270.757812 26.121094 269.191406 26.925781 268.101562 28.535156 C 267.007812 30.140625 266.460938 32.460938 266.460938 35.492188 L 266.460938 46.957031 C 266.460938 47.4375 266.074219 47.824219 265.597656 47.824219 L 261.34375 47.824219 C 261.246094 47.824219 261.164062 47.746094 261.164062 47.644531 L 261.164062 22.824219 C 261.164062 22.34375 261.550781 21.957031 262.027344 21.957031 Z M 262.03125 21.957031 " fill-opacity="1" fill-rule="nonzero"/><path fill="#000000" d="M 191.421875 47.082031 C 190.566406 46.589844 189.964844 45.878906 189.617188 44.945312 C 189.269531 44.015625 189.097656 42.816406 189.097656 41.355469 L 189.097656 26.503906 L 185.398438 26.503906 C 185.144531 26.503906 184.949219 26.300781 184.949219 26.050781 L 184.949219 22.40625 C 184.949219 22.15625 185.148438 21.957031 185.398438 21.957031 L 189.097656 21.957031 L 189.097656 17.347656 C 189.097656 17.042969 189.253906 16.761719 189.511719 16.605469 L 193.546875 14.078125 C 193.820312 13.90625 194.175781 14.101562 194.175781 14.429688 L 194.175781 21.960938 L 199.351562 21.960938 C 199.601562 21.960938 199.796875 22.164062 199.796875 22.410156 L 199.796875 26.054688 C 199.796875 26.308594 199.597656 26.507812 199.351562 26.507812 L 194.175781 26.507812 L 194.175781 40.757812 C 194.175781 41.597656 194.355469 42.207031 194.71875 42.59375 C 195.085938 42.976562 195.683594 43.167969 196.519531 43.167969 L 198.53125 43.167969 C 198.617188 43.167969 198.6875 43.210938 198.722656 43.285156 C 199.351562 44.609375 200.746094 46.382812 201.960938 47.515625 C 202.082031 47.625 202.007812 47.824219 201.839844 47.824219 L 194.988281 47.824219 C 193.460938 47.824219 192.269531 47.578125 191.414062 47.085938 Z M 191.421875 47.082031 " fill-opacity="1" fill-rule="nonzero"/><path fill="#000000" d="M 209.1875 47.027344 C 207.039062 46.097656 205.320312 44.726562 204.03125 42.917969 C 202.828125 41.234375 201.976562 39.175781 201.484375 36.75 C 201.429688 36.472656 201.644531 36.207031 201.929688 36.207031 L 207.082031 36.207031 C 207.164062 36.207031 207.238281 36.269531 207.253906 36.351562 C 207.804688 38.941406 208.8125 40.804688 210.28125 41.929688 C 211.773438 43.082031 213.9375 43.65625 216.78125 43.65625 C 219.21875 43.65625 221.128906 43.109375 222.511719 42.011719 C 223.898438 40.914062 224.589844 39.402344 224.589844 37.464844 C 224.589844 35.96875 223.933594 34.84375 222.625 34.09375 C 221.3125 33.34375 219.347656 32.695312 216.730469 32.144531 L 214.980469 31.816406 C 212.542969 31.308594 210.449219 30.703125 208.703125 30.007812 C 206.957031 29.3125 205.507812 28.289062 204.359375 26.9375 C 203.214844 25.585938 202.644531 23.8125 202.644531 21.625 C 202.644531 19.578125 203.179688 17.722656 204.253906 16.0625 C 205.324219 14.398438 206.832031 13.101562 208.757812 12.171875 C 210.6875 11.242188 212.871094 10.773438 215.3125 10.773438 C 219.425781 10.773438 222.726562 11.789062 225.222656 13.820312 C 227.605469 15.757812 229.097656 18.605469 229.703125 22.367188 C 229.746094 22.640625 229.535156 22.890625 229.257812 22.890625 L 224.148438 22.890625 C 224.058594 22.890625 223.984375 22.820312 223.96875 22.730469 C 223.628906 20.257812 222.742188 18.441406 221.316406 17.296875 C 219.859375 16.128906 217.839844 15.542969 215.257812 15.542969 C 213 15.542969 211.214844 16.070312 209.90625 17.132812 C 208.597656 18.191406 207.941406 19.617188 207.941406 21.410156 C 207.941406 22.542969 208.3125 23.449219 209.058594 24.121094 C 209.808594 24.796875 210.753906 25.328125 211.902344 25.707031 C 213.050781 26.09375 214.601562 26.464844 216.570312 26.832031 L 217.878906 27.105469 C 220.28125 27.542969 222.339844 28.101562 224.050781 28.777344 C 225.761719 29.453125 227.171875 30.476562 228.28125 31.847656 C 229.394531 33.21875 229.949219 34.996094 229.949219 37.191406 C 229.949219 39.386719 229.429688 41.328125 228.394531 43.027344 C 227.355469 44.726562 225.855469 46.054688 223.890625 47.003906 C 221.925781 47.953125 219.613281 48.429688 216.957031 48.429688 C 213.9375 48.429688 211.351562 47.960938 209.203125 47.03125 Z M 209.1875 47.027344 " fill-opacity="1" fill-rule="nonzero"/><path fill="#000000" d="M 291.46875 47.082031 C 289.671875 46.199219 288.199219 45.019531 287.039062 43.542969 C 286.867188 43.320312 286.941406 42.996094 287.191406 42.863281 L 291 40.859375 C 291.175781 40.765625 291.382812 40.824219 291.507812 40.980469 C 292.242188 41.976562 293.175781 42.738281 294.304688 43.273438 C 295.542969 43.855469 296.871094 44.148438 298.292969 44.148438 C 299.710938 44.148438 300.894531 43.835938 301.730469 43.214844 C 302.566406 42.59375 302.988281 41.734375 302.988281 40.640625 C 302.988281 39.765625 302.566406 39.109375 301.730469 38.667969 C 300.894531 38.230469 299.507812 37.792969 297.582031 37.355469 L 295.886719 36.96875 C 294.066406 36.605469 292.523438 36.148438 291.25 35.601562 C 289.976562 35.050781 288.945312 34.273438 288.164062 33.269531 C 287.414062 32.304688 287.023438 31.078125 286.992188 29.589844 C 286.964844 28.214844 287.316406 26.835938 288.042969 25.667969 C 288.910156 24.277344 290.164062 23.203125 291.792969 22.445312 C 293.285156 21.753906 294.925781 21.40625 296.707031 21.40625 C 299.070312 21.40625 301.191406 21.890625 303.066406 22.855469 C 304.777344 23.742188 306.257812 24.953125 307.496094 26.496094 C 307.679688 26.71875 307.597656 27.058594 307.339844 27.1875 L 303.511719 29.039062 C 303.335938 29.125 303.125 29.066406 303.011719 28.902344 C 302.3125 27.914062 301.453125 27.148438 300.421875 26.613281 C 299.292969 26.03125 298.054688 25.738281 296.710938 25.738281 C 295.289062 25.738281 294.171875 26.039062 293.351562 26.644531 C 292.53125 27.246094 292.125 28.039062 292.125 29.027344 C 292.125 29.796875 292.359375 30.382812 292.835938 30.785156 C 293.304688 31.1875 294.125 31.550781 295.292969 31.878906 C 296.273438 32.066406 297.347656 32.28125 298.511719 32.539062 C 300.367188 32.902344 301.984375 33.367188 303.371094 33.933594 C 304.757812 34.5 305.894531 35.296875 306.785156 36.316406 C 307.675781 37.339844 308.121094 38.65625 308.121094 40.261719 C 308.121094 41.867188 307.691406 43.25 306.835938 44.507812 C 305.976562 45.769531 304.789062 46.753906 303.257812 47.46875 C 301.730469 48.179688 300.003906 48.535156 298.070312 48.535156 C 295.632812 48.535156 293.429688 48.050781 291.464844 47.082031 Z M 291.46875 47.082031 " fill-opacity="1" fill-rule="nonzero"/><g clip-path="url(#4e98daa312)"><g clip-path="url(#af4e07e5f4)"><path fill="url(#ad6ae83be9)" d="M 1.511719 -12.457031 L 1.617188 65.609375 L 41.648438 79.652344 L 41.542969 1.585938 Z M 1.511719 -12.457031 " fill-rule="nonzero"/></g></g><g clip-path="url(#50e54f9898)"><path fill="#231fcd" d="M 41.464844 11.1875 C 41.464844 11.8125 41.402344 12.429688 41.28125 13.042969 C 41.160156 13.652344 40.980469 14.25 40.742188 14.824219 C 40.503906 15.402344 40.214844 15.949219 39.867188 16.464844 C 39.523438 16.984375 39.132812 17.464844 38.691406 17.90625 C 38.253906 18.347656 37.773438 18.742188 37.257812 19.085938 C 36.742188 19.433594 36.195312 19.726562 35.621094 19.964844 C 35.046875 20.203125 34.457031 20.382812 33.847656 20.507812 C 33.238281 20.628906 32.621094 20.6875 32 20.6875 C 31.378906 20.6875 30.761719 20.628906 30.152344 20.507812 C 29.542969 20.382812 28.953125 20.203125 28.378906 19.964844 C 27.804688 19.726562 27.257812 19.433594 26.742188 19.085938 C 26.226562 18.742188 25.746094 18.347656 25.308594 17.90625 C 24.867188 17.464844 24.476562 16.984375 24.128906 16.464844 C 23.785156 15.949219 23.492188 15.402344 23.257812 14.824219 C 23.019531 14.25 22.839844 13.652344 22.71875 13.042969 C 22.597656 12.429688 22.535156 11.8125 22.535156 11.1875 C 22.535156 10.566406 22.597656 9.949219 22.71875 9.335938 C 22.839844 8.722656 23.019531 8.128906 23.257812 7.554688 C 23.492188 6.976562 23.785156 6.429688 24.128906 5.910156 C 24.476562 5.390625 24.867188 4.914062 25.308594 4.472656 C 25.746094 4.03125 26.226562 3.636719 26.742188 3.289062 C 27.257812 2.945312 27.804688 2.652344 28.378906 2.410156 C 28.953125 2.171875 29.542969 1.992188 30.152344 1.871094 C 30.761719 1.75 31.378906 1.6875 32 1.6875 C 32.621094 1.6875 33.238281 1.75 33.847656 1.871094 C 34.457031 1.992188 35.046875 2.171875 35.621094 2.410156 C 36.195312 2.652344 36.742188 2.945312 37.257812 3.289062 C 37.773438 3.636719 38.253906 4.03125 38.691406 4.472656 C 39.132812 4.914062 39.523438 5.390625 39.867188 5.910156 C 40.214844 6.429688 40.503906 6.976562 40.742188 7.554688 C 40.980469 8.128906 41.160156 8.722656 41.28125 9.335938 C 41.402344 9.949219 41.464844 10.566406 41.464844 11.1875 Z M 41.464844 11.1875 " fill-opacity="1" fill-rule="nonzero"/></g><g clip-path="url(#bc72b71aff)"><g clip-path="url(#7b2a3bb237)"><path fill="url(#3e35e140b3)" d="M 25.710938 18.398438 L 25.710938 65.511719 L 66.417969 65.511719 L 66.417969 18.398438 Z M 25.710938 18.398438 " fill-rule="nonzero"/></g></g></svg>